<svg width="74" height="190" viewBox="0 0 74 190" fill="none" xmlns="http://www.w3.org/2000/svg">
<path d="M33.4645 188.536C35.4171 190.488 38.5829 190.488 40.5355 188.536L72.3553 156.716C74.308 154.763 74.308 151.597 72.3553 149.645C70.4027 147.692 67.2369 147.692 65.2843 149.645L37 177.929L8.71574 149.645C6.76311 147.692 3.59729 147.692 1.64467 149.645C-0.307954 151.597 -0.307954 154.763 1.64467 156.716L33.4645 188.536ZM32 2.18557e-07L32 92.5L42 92.5L42 -2.18557e-07L32 2.18557e-07ZM32 92.5L32 185L42 185L42 92.5L32 92.5Z" fill="#F79521"/>
</svg>
