<svg width="60" height="60" viewBox="0 0 60 60" fill="none" xmlns="http://www.w3.org/2000/svg">
<path d="M13.125 0C13.6223 0 14.0992 0.197544 14.4508 0.549175C14.8025 0.900806 15 1.37772 15 1.875V3.75H45V1.875C45 1.37772 45.1975 0.900806 45.5492 0.549175C45.9008 0.197544 46.3777 0 46.875 0C47.3723 0 47.8492 0.197544 48.2008 0.549175C48.5525 0.900806 48.75 1.37772 48.75 1.875V3.75H52.5C54.4891 3.75 56.3968 4.54018 57.8033 5.9467C59.2098 7.35322 60 9.26088 60 11.25V52.5C60 54.4891 59.2098 56.3968 57.8033 57.8033C56.3968 59.2098 54.4891 60 52.5 60H7.5C5.51088 60 3.60322 59.2098 2.1967 57.8033C0.790176 56.3968 0 54.4891 0 52.5V11.25C0 9.26088 0.790176 7.35322 2.1967 5.9467C3.60322 4.54018 5.51088 3.75 7.5 3.75H11.25V1.875C11.25 1.37772 11.4475 0.900806 11.7992 0.549175C12.1508 0.197544 12.6277 0 13.125 0V0ZM7.5 7.5C6.50544 7.5 5.55161 7.89509 4.84835 8.59835C4.14509 9.30161 3.75 10.2554 3.75 11.25V15H56.25V11.25C56.25 10.2554 55.8549 9.30161 55.1516 8.59835C54.4484 7.89509 53.4946 7.5 52.5 7.5H7.5ZM56.25 18.75H3.75V52.5C3.75 53.4946 4.14509 54.4484 4.84835 55.1516C5.55161 55.8549 6.50544 56.25 7.5 56.25H52.5C53.4946 56.25 54.4484 55.8549 55.1516 55.1516C55.8549 54.4484 56.25 53.4946 56.25 52.5V18.75Z" fill="#182F41"/>
<path d="M41.25 28.125C41.25 27.6277 41.4475 27.1508 41.7992 26.7992C42.1508 26.4475 42.6277 26.25 43.125 26.25H46.875C47.3723 26.25 47.8492 26.4475 48.2008 26.7992C48.5525 27.1508 48.75 27.6277 48.75 28.125V31.875C48.75 32.3723 48.5525 32.8492 48.2008 33.2008C47.8492 33.5525 47.3723 33.75 46.875 33.75H43.125C42.6277 33.75 42.1508 33.5525 41.7992 33.2008C41.4475 32.8492 41.25 32.3723 41.25 31.875V28.125Z" fill="#182F41"/>
</svg>
