<svg width="70" height="68" viewBox="0 0 70 68" fill="none" xmlns="http://www.w3.org/2000/svg">
<path d="M34.8051 31.6394C40.0551 31.6394 44.1385 27.3617 44.1385 22.1117C44.1385 16.8617 39.8607 12.7783 34.6107 12.7783C29.3607 12.7783 25.2773 17.0561 25.2773 22.1117C25.2773 27.3617 29.5551 31.6394 34.8051 31.6394ZM34.6107 16.6672C34.8051 16.6672 34.8051 16.6672 34.6107 16.6672C37.7218 16.6672 40.2496 19.195 40.2496 22.3061C40.2496 25.4172 37.7218 27.7505 34.6107 27.7505C31.4996 27.7505 29.1662 25.2228 29.1662 22.3061C29.1662 19.195 31.694 16.6672 34.6107 16.6672Z" fill="#182F41"/>
<path d="M63.5827 30.4724C59.8882 27.1669 55.0271 25.4169 49.9716 25.6113H48.416C48.0271 27.1669 47.4438 28.528 46.666 29.6946C47.8327 29.5002 48.8049 29.5002 49.9716 29.5002C53.666 29.3058 57.3605 30.4724 60.2771 32.6113V46.6113H64.166V31.0558L63.5827 30.4724Z" fill="#182F41"/>
<path d="M45.4996 13.1669C46.4718 10.8335 49.194 9.66688 51.7218 10.6391C54.0551 11.6113 55.2218 14.3335 54.2496 16.8613C53.4718 18.6113 51.7218 19.778 49.9718 19.778C49.5829 19.778 48.9996 19.778 48.6107 19.5835C48.8051 20.5558 48.8051 21.528 48.8051 22.3058V23.4724C49.194 23.4724 49.5829 23.6669 49.9718 23.6669C54.8329 23.6669 58.7218 19.778 58.7218 15.1113C58.7218 10.2502 54.8329 6.36133 50.1662 6.36133C47.0551 6.36133 44.3329 7.91688 42.7773 10.6391C43.7496 11.2224 44.7218 12.0002 45.4996 13.1669Z" fill="#182F41"/>
<path d="M23.334 29.889C22.5562 28.7223 21.9729 27.3612 21.584 25.8057H20.0284C14.9729 25.6112 10.1118 27.3612 6.41732 30.4723L5.83398 31.0557V46.6112H9.72287V32.6112C12.834 30.4723 16.334 29.3057 20.0284 29.5001C21.1951 29.5001 22.3618 29.6946 23.334 29.889Z" fill="#182F41"/>
<path d="M20.0278 23.472C20.4167 23.472 20.8055 23.472 21.1944 23.2775V22.1109C21.1944 21.1387 21.1944 20.1664 21.3889 19.3887C21 19.5831 20.4167 19.5831 20.0278 19.5831C17.5 19.5831 15.3611 17.4442 15.3611 14.9164C15.3611 12.3887 17.5 10.2498 20.0278 10.2498C21.9722 10.2498 23.7222 11.4164 24.5 13.1664C25.2778 12.1942 26.4444 11.222 27.4167 10.4442C24.8889 6.36088 19.6389 4.99977 15.5555 7.52755C11.4722 10.0553 10.1111 15.3053 12.6389 19.3887C14.1944 21.9164 16.9167 23.472 20.0278 23.472Z" fill="#182F41"/>
<path d="M50.7509 42.1385L50.362 41.5552C46.4731 37.2774 41.0286 34.7496 35.1953 34.9441C29.362 34.7496 23.7231 37.2774 19.8342 41.5552L19.4453 42.1385V56.9163C19.4453 58.6663 20.8064 60.2218 22.7509 60.2218H47.6398C49.3898 60.2218 50.9453 58.6663 50.9453 56.9163V42.1385H50.7509ZM46.862 56.3329H23.3342V43.4996C26.4453 40.3885 30.7231 38.8329 35.1953 38.8329C39.4731 38.6385 43.7509 40.3885 46.862 43.4996V56.3329Z" fill="#182F41"/>
</svg>
