<svg width="70" height="66" viewBox="0 0 70 66" fill="none" xmlns="http://www.w3.org/2000/svg">
<path d="M8.75 9.125V13.5H56.875V48.5H26.25V52.875H65.625V48.5H61.25V9.125H8.75ZM17.5044 15.6875C15.1858 15.6956 12.9644 16.6199 11.3245 18.259C9.68466 19.898 8.75922 22.1189 8.75 24.4375C8.75 29.2478 12.6962 33.1875 17.5044 33.1875C19.8218 33.1783 22.0416 32.2533 23.6798 30.6142C25.3181 28.9752 26.2419 26.7549 26.25 24.4375C26.25 19.6316 22.3081 15.6875 17.5044 15.6875ZM30.625 17.875V22.25H41.5625V17.875H30.625ZM45.9375 17.875V22.25H52.5V17.875H45.9375ZM17.5044 20.0625C19.9412 20.0625 21.875 21.9941 21.875 24.4375C21.875 26.8875 19.9434 28.8125 17.5044 28.8125C15.0544 28.8125 13.125 26.8875 13.125 24.4375C13.125 21.9941 15.0566 20.0625 17.5044 20.0625ZM30.625 26.625V31H52.5V26.625H30.625ZM8.75 35.375V52.875H13.125V39.75H19.6875V52.875H24.0625V41.1894L28.5775 43.5781C29.8572 44.2562 31.395 44.2541 32.6725 43.5781V43.5825L40.3944 39.4984L38.3534 35.6266L30.6294 39.7106L23.8569 36.1362C22.9117 35.6369 21.859 35.3756 20.79 35.375H8.75Z" fill="#182F41"/>
</svg>
