<svg width="69" height="40" viewBox="0 0 69 40" fill="none" xmlns="http://www.w3.org/2000/svg">
<path d="M34.2453 0L33.5606 0.207812L6.21687 9.36906L0 11.4187L3.62031 12.5781V31.7188C2.31437 32.4778 1.43281 33.8625 1.43281 35.4812C1.43281 36.6416 1.89375 37.7544 2.71422 38.5748C3.53469 39.3953 4.64749 39.8562 5.80781 39.8562C6.96813 39.8562 8.08093 39.3953 8.9014 38.5748C9.72188 37.7544 10.1828 36.6416 10.1828 35.4812C10.1828 33.8625 9.30125 32.4778 7.99531 31.7188V14.0875L12.3703 15.5203V26.7312C12.3703 28.525 13.4641 30.0125 14.7634 31.0406C16.0628 32.0622 17.6772 32.7841 19.6153 33.4316C23.4959 34.7222 28.6103 35.4812 34.2453 35.4812C39.8803 35.4812 44.9947 34.7244 48.8753 33.4294C50.8134 32.7841 52.4278 32.0622 53.7272 31.0384C55.0266 30.0125 56.1203 28.525 56.1203 26.7312V15.5203L62.2737 13.4684L68.4906 11.4187L62.2716 9.36687L34.9278 0.207812L34.2453 0ZM34.2453 4.58281L54.7531 11.4187L34.2453 18.2547L13.7375 11.4187L34.2453 4.58281ZM16.7453 17.0253L33.5628 22.6297L34.2453 22.8353L34.93 22.6275L51.7453 17.0231V26.7312C51.7453 26.7531 51.7541 27.0069 51.0606 27.5516C50.3694 28.0984 49.1291 28.7875 47.5059 29.33C44.2641 30.4084 39.4844 31.1062 34.2453 31.1062C29.0062 31.1062 24.2266 30.4106 20.9825 29.3278C19.3637 28.7875 18.1212 28.0962 17.43 27.5516C16.7344 27.0047 16.7453 26.7531 16.7453 26.7312V17.0231V17.0253Z" fill="#182F41"/>
</svg>
